<svg width="45" height="46" viewBox="0 0 45 46" fill="none" xmlns="http://www.w3.org/2000/svg">
<mask id="mask0_17_7" style="mask-type:alpha" maskUnits="userSpaceOnUse" x="0" y="0" width="45" height="46">
<rect y="0.875" width="45" height="45" fill="#1C1B1F"/>
</mask>
<g mask="url(#mask0_17_7)">
<path d="M16.875 34.625C15.8437 34.625 14.9609 34.2578 14.2266 33.5234C13.4922 32.7891 13.125 31.9063 13.125 30.875V8.375C13.125 7.34375 13.4922 6.46094 14.2266 5.72656C14.9609 4.99219 15.8437 4.625 16.875 4.625H33.75C34.7813 4.625 35.6641 4.99219 36.3984 5.72656C37.1328 6.46094 37.5 7.34375 37.5 8.375V30.875C37.5 31.9063 37.1328 32.7891 36.3984 33.5234C35.6641 34.2578 34.7813 34.625 33.75 34.625H16.875ZM16.875 30.875H33.75V8.375H16.875V30.875ZM9.375 42.125C8.34375 42.125 7.46094 41.7578 6.72656 41.0234C5.99219 40.2891 5.625 39.4063 5.625 38.375V12.125H9.375V38.375H30V42.125H9.375Z" fill="#1C1B1F"/>
</g>
</svg>
