<svg xmlns="http://www.w3.org/2000/svg" xmlns:xlink="http://www.w3.org/1999/xlink" viewBox="0,0,256,256" width="48px" height="48px"><g fill="#fa5252" fill-rule="nonzero" stroke="none" stroke-width="1" stroke-linecap="butt" stroke-linejoin="miter" stroke-miterlimit="10" stroke-dasharray="" stroke-dashoffset="0" font-family="none" font-weight="none" font-size="none" text-anchor="none" style="mix-blend-mode: normal"><g transform="scale(5.33333,5.33333)"><path d="M24,4c-3.29586,0 -6,2.70413 -6,6h-10.5c-0.54095,-0.00765 -1.04412,0.27656 -1.31683,0.74381c-0.27271,0.46725 -0.27271,1.04514 0,1.51238c0.27271,0.46725 0.77588,0.75146 1.31683,0.74381h2.5v25.5c0,3.033 2.467,5.5 5.5,5.5h10.13281c-2.246,-2.336 -3.63281,-5.504 -3.63281,-9c0,-4.159 1.961,-7.85242 5,-10.23242v-5.26758c0,-0.828 0.672,-1.5 1.5,-1.5c0.828,0 1.5,0.672 1.5,1.5v3.5c1.54,-0.642 3.228,-1 5,-1c1.034,0 2.035,0.13333 3,0.36133v-9.36133h2.5c0.54095,0.00765 1.04412,-0.27656 1.31683,-0.74381c0.27271,-0.46725 0.27271,-1.04514 0,-1.51238c-0.27271,-0.46725 -0.77588,-0.75146 -1.31683,-0.74381h-10.5c0,-3.29587 -2.70414,-6 -6,-6zM24,7c1.67413,0 3,1.32587 3,3h-6c0,-1.67413 1.32587,-3 3,-3zM19.5,18c0.828,0 1.5,0.672 1.5,1.5v15c0,0.828 -0.672,1.5 -1.5,1.5c-0.828,0 -1.5,-0.672 -1.5,-1.5v-15c0,-0.828 0.672,-1.5 1.5,-1.5zM35,24c-6.075,0 -11,4.925 -11,11c0,6.075 4.925,11 11,11c6.075,0 11,-4.925 11,-11c0,-6.075 -4.925,-11 -11,-11zM30,29c0.25575,0 0.51153,0.09747 0.70703,0.29297l4.29297,4.29297l4.29297,-4.29297c0.391,-0.391 1.02306,-0.391 1.41406,0c0.391,0.391 0.391,1.02306 0,1.41406l-4.29297,4.29297l4.29297,4.29297c0.391,0.391 0.391,1.02306 0,1.41406c-0.195,0.195 -0.45103,0.29297 -0.70703,0.29297c-0.256,0 -0.51203,-0.09797 -0.70703,-0.29297l-4.29297,-4.29297l-4.29297,4.29297c-0.195,0.195 -0.45103,0.29297 -0.70703,0.29297c-0.256,0 -0.51203,-0.09797 -0.70703,-0.29297c-0.391,-0.391 -0.391,-1.02306 0,-1.41406l4.29297,-4.29297l-4.29297,-4.29297c-0.391,-0.391 -0.391,-1.02306 0,-1.41406c0.1955,-0.1955 0.45128,-0.29297 0.70703,-0.29297z"></path></g></g></svg>