<svg width="42" height="42" viewBox="0 0 44 44" fill="none" xmlns="http://www.w3.org/2000/svg">
<path d="M13.05 43.875H4.5C3.2625 43.875 2.20312 43.4344 1.32188 42.5531C0.440625 41.6719 0 40.6125 0 39.375V30.825C1.8 30.825 3.375 30.2531 4.725 29.1094C6.075 27.9656 6.75 26.5125 6.75 24.75C6.75 22.9875 6.075 21.5344 4.725 20.3906C3.375 19.2469 1.8 18.675 0 18.675V10.125C0 8.8875 0.440625 7.82813 1.32188 6.94688C2.20312 6.06563 3.2625 5.625 4.5 5.625H13.5C13.5 4.05 14.0437 2.71875 15.1312 1.63125C16.2188 0.54375 17.55 0 19.125 0C20.7 0 22.0313 0.54375 23.1188 1.63125C24.2063 2.71875 24.75 4.05 24.75 5.625H33.75C34.9875 5.625 36.0469 6.06563 36.9281 6.94688C37.8094 7.82813 38.25 8.8875 38.25 10.125V19.125C39.825 19.125 41.1562 19.6688 42.2437 20.7563C43.3312 21.8438 43.875 23.175 43.875 24.75C43.875 26.325 43.3312 27.6563 42.2437 28.7438C41.1562 29.8313 39.825 30.375 38.25 30.375V39.375C38.25 40.6125 37.8094 41.6719 36.9281 42.5531C36.0469 43.4344 34.9875 43.875 33.75 43.875H25.2C25.2 42 24.6094 40.4062 23.4281 39.0938C22.2469 37.7812 20.8125 37.125 19.125 37.125C17.4375 37.125 16.0031 37.7812 14.8219 39.0938C13.6406 40.4062 13.05 42 13.05 43.875ZM4.5 39.375H9.28125C10.1812 36.9 11.625 35.1562 13.6125 34.1437C15.6 33.1313 17.4375 32.625 19.125 32.625C20.8125 32.625 22.65 33.1313 24.6375 34.1437C26.625 35.1562 28.0688 36.9 28.9688 39.375H33.75V25.875H38.25C38.55 25.875 38.8125 25.7625 39.0375 25.5375C39.2625 25.3125 39.375 25.05 39.375 24.75C39.375 24.45 39.2625 24.1875 39.0375 23.9625C38.8125 23.7375 38.55 23.625 38.25 23.625H33.75V10.125H20.25V5.625C20.25 5.325 20.1375 5.0625 19.9125 4.8375C19.6875 4.6125 19.425 4.5 19.125 4.5C18.825 4.5 18.5625 4.6125 18.3375 4.8375C18.1125 5.0625 18 5.325 18 5.625V10.125H4.5V15.075C6.525 15.825 8.15625 17.0812 9.39375 18.8438C10.6313 20.6063 11.25 22.575 11.25 24.75C11.25 26.8875 10.6313 28.8375 9.39375 30.6C8.15625 32.3625 6.525 33.6375 4.5 34.425V39.375Z" fill="#000000" fill-opacity="1"/>
</svg>
