<svg width="40" height="45" viewBox="0 0 40 45" fill="none" xmlns="http://www.w3.org/2000/svg">
<path d="M19.9638 3.02275L20 3.06079L20.0362 3.02275C20.0672 2.99017 20.0989 2.95786 20.1308 2.92524L20.1308 2.92523L20.1311 2.92502C20.1627 2.89273 20.1946 2.86014 20.226 2.82721C22.0113 1.05066 24.4343 0.05 26.9565 0.05H30.4348C35.6909 0.05 39.95 4.29245 39.95 9.51923V25.0962C39.95 36.0622 31.0196 44.95 20 44.95C8.98044 44.95 0.05 36.0622 0.05 25.0962V9.51923C0.05 4.29245 4.30914 0.05 9.56522 0.05H13.0435C15.5657 0.05 17.9887 1.05066 19.7741 2.82721C19.8054 2.86014 19.8373 2.89273 19.869 2.92502L19.8692 2.92523L19.8692 2.92524C19.9011 2.95786 19.9328 2.99017 19.9638 3.02275Z" fill="#FFE8D6" stroke="#FF971D" stroke-width="0.1"/>
</svg>
