<svg width="48" height="48" viewBox="0 0 48 48" fill="none" xmlns="http://www.w3.org/2000/svg">
<path fill-rule="evenodd" clip-rule="evenodd" d="M15.8906 5.6172C15.3791 5.6607 14.8798 5.81313 14.4258 6.07813L3.24219 12.6016C2.78219 12.8696 2.5 13.3625 2.5 13.8945C2.5 19.3685 5.594 24.2994 10.5 27.5234V21.8945C10.5 17.7525 13.858 14.3945 18 14.3945H20C21.426 14.3945 22.812 14.8028 24 15.5508C25.188 14.8028 26.574 14.3945 28 14.3945H30C34.142 14.3945 37.5 17.7525 37.5 21.8945V27.5234C42.406 24.2994 45.5 19.3685 45.5 13.8945C45.5 13.3625 45.2178 12.8696 44.7578 12.6016L33.5742 6.07813C32.6662 5.54813 31.5699 5.45423 30.5859 5.82423L26.9844 7.17579C25.0604 7.89779 22.9396 7.89779 21.0156 7.17579L17.4141 5.82423C16.9221 5.63923 16.4021 5.5737 15.8906 5.6172ZM18 16.3945C14.962 16.3945 12.5 18.8585 12.5 21.8945V30.8945C12.5 37.2465 17.648 42.3945 24 42.3945C30.352 42.3945 35.5 37.2465 35.5 30.8945V21.8945C35.5 18.8585 33.038 16.3945 30 16.3945H28C26.542 16.3945 25.1414 16.9758 24.1094 18.0078C24.0734 18.0458 24.036 18.0831 24 18.1211C23.964 18.0831 23.9266 18.0458 23.8906 18.0078C22.8586 16.9758 21.458 16.3945 20 16.3945H18Z" fill="black"/>
</svg>
