<svg width="9" height="10" viewBox="0 0 9 10" fill="none" xmlns="http://www.w3.org/2000/svg">
<path d="M4.00136 1.01198L4.03766 1.0503L4.07396 1.01198L4.09267 0.99261L4.11142 0.973179C4.11149 0.973106 4.11157 0.973033 4.11164 0.972961C4.4646 0.620114 4.94356 0.421399 5.44207 0.421399H6.14427C7.18329 0.421399 8.02532 1.26411 8.02532 2.30245V5.46236C8.02532 7.66494 6.24024 9.45002 4.03766 9.45002C1.83508 9.45002 0.05 7.66494 0.05 5.46236V2.30245C0.05 1.26411 0.892037 0.421399 1.93106 0.421399H2.63326C3.13177 0.421399 3.61072 0.620114 3.96369 0.972961L3.98266 0.99261L4.00136 1.01198Z" fill="#FFE8D6" stroke="#FF971D" stroke-width="0.1"/>
</svg>
